<?xml version="1.0" encoding="UTF-8" standalone="no"?>
<!-- Generator: Adobe Illustrator 26.5.0, SVG Export Plug-In . SVG Version: 6.00 Build 0)  -->

<svg
   version="1.1"
   x="0px"
   y="0px"
   width="210.963"
   height="32"
   viewBox="0 0 210.963 32"
   enable-background="new 0 0 600 32"
   xml:space="preserve"
   id="svg13"
   sodipodi:docname="npjcomplex.svg"
   inkscape:version="1.4.2 (ebf0e940, 2025-05-08)"
   xmlns:inkscape="http://www.inkscape.org/namespaces/inkscape"
   xmlns:sodipodi="http://sodipodi.sourceforge.net/DTD/sodipodi-0.dtd"
   xmlns="http://www.w3.org/2000/svg"
   xmlns:svg="http://www.w3.org/2000/svg"><defs
   id="defs13" /><sodipodi:namedview
   id="namedview13"
   pagecolor="#ffffff"
   bordercolor="#000000"
   borderopacity="0.25"
   inkscape:showpageshadow="2"
   inkscape:pageopacity="0.0"
   inkscape:pagecheckerboard="0"
   inkscape:deskcolor="#d1d1d1"
   inkscape:zoom="1.4133333"
   inkscape:cx="300"
   inkscape:cy="15.919811"
   inkscape:window-width="1968"
   inkscape:window-height="1166"
   inkscape:window-x="0"
   inkscape:window-y="25"
   inkscape:window-maximized="0"
   inkscape:current-layer="svg13" />
<g
   id="guide">
</g>
<g
   id="signifier">
	<g
   id="g3">
		<path
   fill="#e30613"
   d="m 0,7.511 h 2.847 v 2.847 C 3.67,8.677 5.659,7.202 8.609,7.202 c 3.704,0 6.311,2.024 6.311,7.237 v 11.01 H 12.073 V 14.234 c 0,-3.155 -1.338,-4.561 -4.219,-4.561 -2.641,0 -5.008,1.681 -5.008,4.905 V 25.45 H 0 Z"
   id="path1" />
		<path
   fill="#e30613"
   d="m 18.287,7.511 h 2.847 v 3.018 c 1.029,-1.749 3.464,-3.327 6.071,-3.327 4.699,0 8.163,3.43 8.163,9.02 v 0.274 c 0,5.488 -3.224,9.26 -8.163,9.26 -2.95,0 -5.042,-1.475 -6.071,-3.258 v 9.192 h -2.847 z m 14.131,9.124 V 16.36 c 0,-4.527 -2.504,-6.791 -5.522,-6.791 -3.327,0 -5.865,2.195 -5.865,6.791 v 0.274 c 0,4.596 2.401,6.757 5.899,6.757 3.567,0 5.488,-2.401 5.488,-6.756 z"
   id="path2" />
		<path
   fill="#e30613"
   d="m 36.045,29.599 c 2.024,-0.171 2.641,-1.2 2.641,-2.778 V 7.511 h 2.847 v 19.07 c 0,3.43 -1.509,5.282 -5.488,5.419 z M 38.172,1.886 C 38.172,0.857 39.029,0 40.058,0 c 1.029,0 1.886,0.857 1.886,1.886 0,1.029 -0.857,1.886 -1.886,1.886 -1.029,0.001 -1.886,-0.857 -1.886,-1.886 z"
   id="path3" />
	</g>
	<rect
   x="59"
   fill="#e30613"
   width="2"
   height="32"
   id="rect3"
   y="0" />
</g>
<g
   id="one_line">
	<g
   id="g13">
		<path
   d="m 78.212,17.923 v -0.215 c 0,-4.309 3.07,-7.218 6.841,-7.218 2.936,0 5.683,1.347 6.113,4.928 h -2.208 c -0.35,-2.235 -1.966,-3.07 -3.905,-3.07 -2.559,0 -4.525,2.047 -4.525,5.359 v 0.215 c 0,3.447 1.885,5.279 4.605,5.279 1.993,0 3.797,-1.158 4.04,-3.447 h 2.074 c -0.296,3.043 -2.747,5.305 -6.141,5.305 -3.932,10e-4 -6.894,-2.773 -6.894,-7.136 z"
   id="path4" />
		<path
   d="m 93.145,17.896 v -0.215 c 0,-4.229 2.936,-7.191 6.921,-7.191 3.985,0 6.921,2.936 6.921,7.164 v 0.216 c 0,4.255 -2.936,7.19 -6.948,7.19 -4.012,0 -6.894,-3.043 -6.894,-7.164 z m 11.526,0 v -0.188 c 0,-3.259 -1.805,-5.359 -4.605,-5.359 -2.828,0 -4.605,2.101 -4.605,5.333 v 0.215 c 0,3.205 1.751,5.306 4.605,5.306 2.828,-10e-4 4.605,-2.129 4.605,-5.307 z"
   id="path5" />
		<path
   d="m 109.897,10.732 h 2.235 v 2.155 c 0.646,-1.32 2.182,-2.397 4.201,-2.397 1.805,0 3.394,0.754 4.121,2.639 0.97,-1.831 3.07,-2.639 4.821,-2.639 2.532,0 4.74,1.508 4.74,5.602 v 8.726 H 127.78 V 15.93 c 0,-2.478 -1.05,-3.501 -2.989,-3.501 -1.832,0 -3.717,1.239 -3.717,3.771 v 8.618 h -2.235 V 15.93 c 0,-2.478 -1.05,-3.501 -2.989,-3.501 -1.832,0 -3.717,1.239 -3.717,3.771 v 8.618 h -2.235 V 10.732 Z"
   id="path6" />
		<path
   d="m 133.731,10.732 h 2.235 v 2.37 c 0.808,-1.374 2.72,-2.612 4.767,-2.612 3.689,0 6.41,2.693 6.41,7.083 v 0.215 c 0,4.309 -2.532,7.271 -6.41,7.271 -2.316,0 -3.959,-1.158 -4.767,-2.558 v 7.217 h -2.235 z m 11.096,7.164 v -0.215 c 0,-3.555 -1.966,-5.333 -4.336,-5.333 -2.612,0 -4.605,1.724 -4.605,5.333 v 0.215 c 0,3.609 1.885,5.306 4.632,5.306 2.801,0 4.309,-1.886 4.309,-5.306 z"
   id="path7" />
		<path
   d="m 150.123,3.999 h 2.263 v 20.818 h -2.263 z"
   id="path8" />
		<path
   d="m 155.323,17.923 v -0.215 c 0,-4.255 2.72,-7.218 6.598,-7.218 3.259,0 6.329,1.966 6.329,7.002 v 0.727 h -10.611 c 0.108,3.205 1.643,4.982 4.525,4.982 2.181,0 3.447,-0.808 3.743,-2.451 h 2.235 c -0.484,2.828 -2.828,4.309 -6.005,4.309 -3.986,10e-4 -6.814,-2.8 -6.814,-7.136 z m 10.638,-1.508 c -0.215,-2.909 -1.724,-4.066 -4.04,-4.066 -2.289,0 -3.824,1.562 -4.201,4.066 z"
   id="path9" />
		<path
   d="m 174.191,17.573 -4.713,-6.841 h 2.612 l 3.447,5.117 3.42,-5.117 h 2.424 l -4.659,6.679 5.144,7.406 h -2.639 l -3.797,-5.683 -3.878,5.683 h -2.397 z"
   id="path10" />
		<path
   d="m 183.799,6.315 c 0,-0.808 0.673,-1.481 1.481,-1.481 0.808,0 1.481,0.673 1.481,1.481 0,0.808 -0.673,1.481 -1.481,1.481 -0.807,0 -1.481,-0.673 -1.481,-1.481 z m 0.404,4.417 h 2.235 v 14.085 h -2.235 z"
   id="path11" />
		<path
   d="m 190.755,21.29 v -8.672 h -2.02 v -1.885 h 2.02 V 7.527 h 2.235 v 3.205 h 3.286 v 1.885 h -3.286 v 8.457 c 0,1.374 0.62,2.047 1.75,2.047 0.7,0 1.239,-0.107 1.724,-0.296 v 1.885 c -0.458,0.162 -0.997,0.296 -1.912,0.296 -2.558,0 -3.797,-1.508 -3.797,-3.716 z"
   id="path12" />
		<path
   d="m 203.583,23.363 -5.521,-12.631 h 2.397 l 4.309,10.1 3.905,-10.1 h 2.29 l -7.783,18.987 h -2.263 z"
   id="path13" />
	</g>
</g>
</svg>
